<svg xmlns="http://www.w3.org/2000/svg" width="410" height="230" version="1.0"><path fill="#222323" d="M164 216a4575 4575 0 0 1-121-11c0-1 7-3 16-4l11-2c1 0-10-10-12-10l-7-3c-7-3-6-3-7-18l-2-13-1-12c0-7 0-8 3-12l5-12c6-23 10-29 24-35l15-7 14-6c13-4 13-4 13-8 0-2 0-3 4-5l8-2c4 0 5-1 15-10l31-28c6-4 14-5 27-5a2426 2426 0 0 0 87 0c2-2 4-2 13-2 13 1 25 5 32 12l7 6c2 2 7 10 13 25l7 13c5 5 6 8 8 19 4 26 1 75-5 82l-24 13-42 21c-22 12-20 11-45 14h-87zm-47-24-2-1-3 1 2 1 3-1zm217-23c1 0-2-8-4-10l-18 9 10 1a138 138 0 0 1 12 0z"/></svg>